<?xml version="1.0" encoding="utf-8"?><svg xmlns="http://www.w3.org/2000/svg" version="1.1" baseProfile="tiny" width="800" height="400" viewBox="0 0 800 400"><g><g stroke="#000000" stroke-width=".98" fill="#FFFFFF"><path d="m299.66 366.38l-3.36-.48-3.3.48-1.13 0 0 0-1.44.91-1.35.79-1 .82-1.39.96-1.92.74-4.74.61-.4.91 2.92.75 5.27.13 4.65-.44 4.18-.52 3.62-.57 3.43-.7-.08-1.13-.26-.96-.96-1.35-2.74-.95z" /><path d="m269.75 335.5l2.26-.65.83-.74-1.31-.57-1.74.26-1.26.7-1.61.56-1.83.27-1.57.43-1.39.7-2.13.13-1.4.56-1.21.61-.88.96-1.78.66-1.52.69-1.44.83-1.22.65-1.09 1 .27.88.43.95-.35.87-.87.92-1.04.83-.22.87.13.87.57.78.69.87.79.87.69.87.26.92-.52.96-1.3.69-2.18.48-2.83.31-3.13.26-2.7.3-2.27.57-2.3.48-2.96.22-1.53-.74-2.26-.48-3.05.21-2.22-.87-.87.79-1.74.82-2.65-.47-2.7-.27-2.92-.08-1.82-.87-2.79.21-2.57-.39-1.78-1-1.92 1.7-2.96.17-2.26-.52-2.74.26-3.05.44-2.87.3-3-.13-.96-.78-2.27-.66-2.61-.34-2.87.13-2.92-.13-1.69-.31.78 1.66.48.82 1.26.83 2.87.17 1.09.79 1.44.74-1.18.96-3.04-.39-3.01-.31-3.35-.09-2.83.4-3.13.13-2.57-.61-3-.27-2.66-.82-2.3.65-1.44-.74-.78-.78-1.44-.7-2.39.78-2.66.4-2.78-.48-2.7.34-2.27.66-3.04.09-3.31-.05-3.22-.04-3.09.09-3.31-.22-3-.22-2.92.3-3.05.05-2.95-.39-3.31.3-1.53-.17-1.74-.13-2.7.48-2.39.47-3 .53-3.01.21-3.17.05-2.57.56-3.4.44-1.3-.74-2.87.39-.66.78.79.83.08.83-3.35.22-2.52.74-2.79.61-2.96.48-3.52.21-1.83-.95-3.53.3-3.65.22-2-.7-1.09-.22.69 2.53 1.74.78 2.88.7 1.43.83 4.31.22 4.01.3 4.57.13 3.26.65 2.87.61.79.92-1.79.74-3.65.83-3.96.65-3.22-.74-5.14.35-5.4-.13 3.44.69 1.7.79 3.7.61.43.91-.82.83-.83.91-.39 1 5.96.48 1.87.87 7.18.53 8.75.08-.48 1.05-6.18.61-5.87.65-5.36-.7-9.44-.43-6.4.61-8.57-.52-5.01-.7-6.31-.57-3.35-.74-1.05-.26-2.11-.52-6.53.39-.5.13-2.82.92-3.21-.92-.23-.04-.34 0-.32.09-.66.2-.75.23-.62.18-.25.08-4.01-.69-1.96 1.29-.13-.02 0 11.75 800 0 0-11.75-3.83-.53-5.09-.7-6.14.57-1.66-.66-.43-.17-6.39-.48-1.14-1.09-5.09-.7-3.35-.69-3.09-.7-2.7-.74-1.91-.83-1.14-.91-2.96-.74 1.18-.83.96-.83.39-1.04 1.87-1.26 4.22-.09 3.4-.48 4-.35-.87-.96-4.13-.3-1.05-.79-.48-.82-1.26-.87-.04-.83.21-1 .57-.83.91-.91 1.62-.7 1.52-.83 1-.87 2.87-.48 1.31-.78 2.91-.35 1.05-.92.78-.78 1-1 1.18-.78.26-.88-1.57-.65-2.3-.43-2.31-.53-2.48-.3-2.66-.18-2.65.05-2.4-.13-2.56.04-2.48-.35-1.7-.78-2.53-.52-1.08-.87-2.57-.27-2.7-.21-1.96-.53-1.7-.69-1.96-.61-1.43.74-2.53-.05-2.26-.34-3-.35-2.88-.39-2.48-.57-2.39-.52-1.44-.66.44-.82-1.57-.7-2.48-.17-2.91-.09-2.09.04-2.92 0-2 .13-2.92.05-2.52.13-1.87-.39-.92-.75-.74-.91-.39-1-1.39-.61-.09.91-.61 1.09-2 .18-2.05.21-2.52 0-2.26.09-2.4.35-2 .39-2.05-.22-1.95-.21-2.01 0-2.09.34-2.3-.21-2-.31-2.01.18-1.48.69-1.74.7-2.3.17-2.79-.21-2.66-.57-1.52-.57-2.44.09-1.56-.7-1.13-.69-1.75-.44-1.65.48-2.48.09-1.52.65-1.83.61-2.4.31-2.39.26-2.04 0-2.18-.05-2.83-1.35-1.48-.78-1.7-.61-1.43-.3-2.79 1.65-1.52.61-1.13.74-1.48.74-2.31-.3-2.05.3-2.39 0-2 .3-1.7-.47-1.87-.13-1.39.21-2.09-.04-2.27-.17-2.13.26-2.13-.18-1.87-.43-1.05-1.05-.82-.61-1.14 1.48-1.61.61-2.43-.13-2.18.26-2 .22-2.22-.22-1.61.35-1.26.39-1.22.74-1.88.44-2.17.57-1.52.82-.66.83-1.09.87-2.26.35-2.22.26-2.52.09-1.4.21-1.17 1.09-.57.79-1.39.65-1.22.7-.74.82-1.22.88-2.56.39-2.57-.22-1.7-.7 1.04-.91 1.14-.83.3-.87-2.48.04-.31-.87 1.75-.82 2.13-.57.26-1 .09-.57-1.83-2.31-2.22 0-2.18-.17-2.09-.26-2.17-.26-2.09-.48-1.92.91-1.78.44-2.13-.13-1.83-.61-1.48-.61-2.66-.26-1.35-.61-1.95-.74-.22-.96-1.79-.61-2.09-.22-1.95-.13-2.05.18-2.22.34-1.83.44-1.87.61-.43.78-1.83.53-2.09-.05-1.44.61-2 .79-2.09-.27-1.74.48-1.83.53-1.74.47-2.61.44-2.18.3-2.3.74-2.01.4-.78.95-2.26.53-1.66-.57-1.56-.78-2.31.17-1.92-.52-.87-.78-2.3-.35-1.26.74-1.22 1.22-1.7.61-2.26.21-2.09.4-1.96.61-2.35.26-2.22.3-2.48.04-2.53 0-2.61.09-2.44.39-1.43-.65-1.05-.74-2.39-.13-2.48-.26-2.35-.05-2.61.09-2.4.26-1.82.83-.88-.83-2.91-.13-2.26.61-1.01.87-2.52.44-1.26-.79-1.61-1.04-2.31.3-1.65-.56-1.35.78-1.92.48-2.48.35-2.26.52-2.48.31-2.53.3-2.26.39-2.44.74-.96-.91-2.52-.13-2.79.26-2.87.39-2.65-.13-.57-.83-2.39-.21-1.13.87-.09.82-2.66-.08-1.08-.74-2.66-.13-1.61.61-1.09 1.04-1.74.87-2.26.7-2.44.52-2.31.44-1.48.69-.78.92 2.35.52-.65.87-2.09.65-1.96.75-3.09.69-2.44.52-2.7.53-2.74.43-3.26.31-3.44.08-1.52.18-3.01.3-3.04.39-2.01.88-2.69.65-2.7.65-3.75.52-3.17.53-1 .48-.31 1.65.61.83 4.35 0 4.57-.35 4.31-.09 0 .83.96.78 1.57.79-3.44.56-4.92.4-4.61.3-4.18.48-4.4.48-5.61.04-3.09.66-1.44.95-4.48-.52-5.44-.3-5.53.04-3.96.61-4.62.57-3.87.69-3.65.66-2.7.78-1.09-.83-2.18-1.04-4.13-.74-3.79-.66-5.44-.61-5.53-.35-4.04-.69-3.18-.7-4.01-.61-4.7-.35-2.83-.82-.47-.83-2.62-.74.09-.87.13-.92 3.18-.56 3.83.21 2.48-.69-1.39-.79-2.48-.61-3.4-.39-.7-.87 3.75 0 3.52-.17 3.92.08 3.57-.08 1.78-.92 3.01-.48 2.78-.47 2.96-.35 3.35-.83 1.35-.74 1-.78 2.96-.31 1.31-.74 1.22-.91.3-1.18-.69-.87-.18-.87-.65-.83-.31-2.05-.65-.82-1.04-.74-.66-.87-.47-.83-.92-.87-1.7-.7-1.82-.52-1.18-.7-.78-.91.35-.83 1.39-.96 1.3-.69 1.22-.74 2.09-.18 1.53-.52-1.05-.74-.13-.83.3-.87 1.09-.65 1.61-.57 1.53-.52 1.82-.22 1.66.35.96-.48z" /><path d="m249.44 312.61l-1.11-1.67-.85-1.03 0 0-1.58-.26-2.05.91-.72 1.53-1.15 1.01-2.94-.79-3.12-1.49-1.84-.46 3.06 2.48 2.27 1.2 2.8 1.24 2.33.32 1.61.67 2.41.25 1.9-.69.74-.9 1.13.79 2.11-.11 1-1.12-3.11-.55-2.89-1.33z" /><path d="m269.89 306.49l-1.33.89-1.89-.55-2.67 1.33 1.11 1 1.89-1 1 .78 3-.67.67-.78-1.78-1z" /><path d="m556.18 303.41l.62-1.02-.08-.42-2.1-.28-1.43-.7-.15.46-.33.92.06 1.18 3.41-.14z" /><path d="m723.11 283.59l-1.46-.2-.05 1.02 1.28 1.94.3 1.46 1.37 1.91 1.37.07.46.11 1.54-1.54.78.6.23-1.78.76-.77-.16-2.64-1.33-.15-1.74.43-1.21.31-2.14-.77z" /><path d="m784.49 283.87l-.49-.94-1.56 1.02-.33 1.24-.84.57-.99 1.65-1.34 1.16-1.9 1.16-1.6.84-1.43.42-2.8 2.2-1.19 1.64.37.82 2.42.16 1.44.73 2.04.05 1.11-.64 1.75-.99 1.26-2.25.6-1.45 1.9-.84 1.71-.03-.82-1.07 1.14-.89 1.45-1.64.83-1.03 0-.93-.65-.94-1.58.9-.5-.92z" /><path d="m788.03 273.29l-.63-1.98-1.73-.58-1.21-1.23-.82.17.92 1.57 1.75 1.97 1.07.92-.06.39.9 1.49.1 1.44-.38 1.71-1.6.77-.06.81 2.39.89.72 1.22-1.28 1.83.93.32.38.58 1.72-.89 1.1-1.52.84-1.2.33-.41-.21-.95.59-.68 1.7.05.68-1.3.53-1.97-1.12-.26-1.27.85-1.5-.18-1.79-.72-.33-1.69-1.01-.6-.04 1.52-1.61-2.34z" /><path d="m796.39 231.47l-.56.37-1.01-.28-.85.77.21.97 1.23.28 1.37-.31.37-1.16-.76-.64z" /><path d="m511.24 223.06l-.55-1.46-.59-.95-.78-.95-.73.99-.05 1.34-1.22 1.54-.94-.27.3.95-.67 1.12-1.83 1.37-1.26 1.27-.98.03-.82.4-1.24.45-1.11.09-.3 1.4-.77 1.25.17 2.05.42 1.4.52 1.05-.2 1.41-1.06 1.69-.01.74-1.02.38-.4 1.61.2 1.59.79 1.78.14 1.97.62 1.17 1.76.79 1.28.57 1.94-.94 1.81-.53 1-2.57.85-3.09 1.38-4.21 1.09-3.06.88-2.6.14-1.88.61-.51.2-.94-.43-1.65.42-.66.76 1.31.39-.66.22-1.06-.58-1.04-.35-2.68z" /><path d="m719.03 223.52l.07-.8-.16-1.26-.81-1.13-.09-.93-.56-.27-.15-1.4-.63-1.08-.83.83-.05.63-.42 1.22-.54 1.18.35.74-.43.46-.29 1.67.26 1.27-.16.65.3 1.07-.67 1.77-.28 1.22-.45.98-.43 1.2-1.47.76-2.12-.76-.34-.68-1.16-.57-.63 0-1.61-1.32-1.14-.76-1.71-.71-1.77-1.23-.16-.63.79-1.09.65-1.11-.25-.89.76-.07.84-.9.6-1.19-1.02-1.1-.52.43-.84-.2-1.3.64-1.37-.69-.64.23-1.87-.57-1.18-.91-1.47-.55-1.19.32 1.63.73.04 1.14-1.87.42-1.13-.27-1.35.79-.96 1.27.34.55-1 .58-1.06 1.78.47 1.23-1.42-.21-1.39-.02-1.23-1.31-1.64-1.02-1.08.3-.97.31-.04.56-.98-.26-.03.62-1.12.38-.54.88-1.21 1.09-.27 1.69-.98-.48-.7 1.08.79 1.05-.94.44-.94-1.91-1.55 1.88-.06 1.21-.1.89-1.31 1.13-.56 1.18-1.21.99-2.34.65-1.22-.05-.59.2-.34.49-1.35.25-1.75.82-.61-.27-1.01.17-1.7.82-1.08.95-1.81.74-.94 1.53-.16-1.69-.92 1.59.24 1.3-.31 1.12-.45.54-.24 1.29.51.66.21.7 1.1 1.75.04 1.14-.66-.86-1.1-.64.75 2.06-.98-.96.31.94 1.27 1.76.28 1.74.98.89.06.65.88 1.45-.09 1.26.36 1.27 1.18 2.25.25 1.32-.27 1.54.07.8-.37.51-1.11.3-.04 1.27 1.19.42 2.36 1.42 1.49 0 1.62.09 1.07-.71 1.11-.62.65.1 1.32-1.19 1.53-.1 1.59-.24 1.97.4 1.39-.2 1.89-.05.82-.9.43-1.17 1.92-.51 2.36-1.14 2.12.15 2.53-.74 2.88-.8 3.98-.21 2.13 1.08 1.57.07 2.85 1.34-.42.51 1.17.84 1.39 1.61-.07 1.18 1.74.91.85-1.76 1.39-.76 1.81-1.9.17 1.65-.86 1.08-.33 1.29-1.16 1.23 1.97-.41 1.09-1.54.54 1.65-.74 1.08 2.14.27 1.09.9.52 1.12.41 1.69 1.44 1.37 2.15.64 1.27.16 1.26.35 1.92.6 1.95-1.61 1.21-.42-.34 1.16 1.36.39 1.84.99 1.34-.96 1.02-.86 2.06-.91 2.48-.08 1.28-.77-.12-.71.29-1.53.56-1.66.86-1.11.66-1.92.74-1.09.81-1.73 1.65-1.09.98-2.02.44-1.59-.05-1.28.6-1.98.39-1.03.13-1.96-1.06-1.89.15-1.38-.06-1.27-.62-1.78-1.74-1.8-1.03-.85-1.58-1.36-.38-2.36-.54.34-.9-.96-.89.49-.87-2.41-1.27-1.39.29-.54-1.49-.96-1.57-1.06-2.4-1.16-.72-1.51.21-1.15-.6-1.9-.56-.27-.34-1.11-.47-1.91.22-.98-1.06-.87-.74-.94-1.42.84-.8-1.75z" /><path d="m641.39 208l-.31-.79-.92-.17-1.79-.87-2.7-.13-1.52 2.12 2.03.17.38.95 4.06.92.92-.28 1.63.22 2.58.85 2.08.4 2.3.16 2.01-.06 2.45.9 2.53-.85-2.72-1.32-3.34-.4-.8-1.45-4.13-1.06-.49.91-4.25-.22z" /><path d="m698.1 195.5l-.35-.83-3.57-.91-1.14.72-3 .54.94 1.1 1.99.41.88 1.33 3.25 0 .19.59-1.59-.04-2.39.8 1.7 1.09.01.96.5.82.85-.2.66-1.08 3.34 2.06 1.83.18 4.31 1.88 1.06 1.87.58 2.42-1.4.61-.94 1.81 2.82-.07.54-.63 2.26.45 1.98 1.82 2.3.09 1.24.38 1.75-.77-.29-1.64 1.36-.73 1.88-.64 2.9.98 1.16 1.94 1.26 1.22 1.73 1.42 2.24.34 1.91.25.55.57 1.47-.15.24-.65-2.36-.93.67-.42-1.72-.38.09-.98-1.27.07-1.44-2.36-1.99-1.45-.49-1.48 2.05-.24-.54-1.18-3.71-1.38-.33-1.3-1.24-1.12-1.53-1.14-4.11-1.27-3.86-1.53-2.38-.43-1.65-.79-1.9-.78-1.98 0-2.55 1.35-1.85 2.35-2.3-1.33-.62-3.59z" /><path d="m678.31 189.78l-.39-.49-2.19 1.61-2.56.09-2.8-.3-1.73-.66-1.89 1.65-.47.92-1.12 3.35-.31 1.76-.92 1.46.69 1.52.93.01.35 2.15-.64 2.04.95.66 1.41-.33-.09-3.18-.18-2.59 1.48-.67-.17 2.16 1.6 1.31-.28.85.55.62 2.18-.86-1.07 1.82.87.78 1.18-.65.02-1.46-1.99-2.57.4-.76-2.1-2.85 1.95-.86.97-1.3.97.32.18-1.02-4.14.75-1.2 1.01-1.99-1.98.31-1.68 1.94-.32 3.71-.11 2.14.44 1.67-.43 1.78-2.21z" /><path d="m635.15 205.94l.09-3.43.56-2.77-1.08-1.4-1.64-.2-.77-1.24-.38-1.55-.79-.06-1.28-.77.89-1.81-1.69-1.02-1.29-1.86-1.86-1.52-2.26-.04-2.11-2.39-1.22-.92-1.72-1.51-1.97-2.17-3.44-.43-1.43-.09.2 1.13 2.32 2.45 1.67 1.25 1.16 1.9 2 1.4.82 1.73.66 1.91 1.95 1.85 1.69 3.12 1.1 1.66 1.68 1.81.96 1.35 2.85 1.81 1.87 1.86 2.46-.05z" /><path d="m661.95 188.88l.38-1.02-1.63-2.11 1.26-2.01 1.64-.75-.4-1.09 1.49-.11.16-.87-1.86-.67-1.46-.62-.1-.96-1.14-1.13-.9.01-1.12 1.74-1.71 1.54-1.89 1.22-.88.83-1.09 1.41-1.6 1.75-2.66.49-.95.42-.45 1.88-1.72.41-1.62-.76-1.32 1.48-.26 2.06.31 1.94 1.06 1.9 1.11.62.34 2.98 1.83.26 1.46-.13.81 1.08 2.64-.8 1.11.71 1.58.13.89 1.36 2.52-1 .33.79.85-3.4.06-2.22 2.14-1.51-.1-2.02.74-1.51 2.64-.27-2.49-2.05z" /><path d="m680.84 174.24l-.16-.82-.19-1.12-1.8-1.05.14 1.72-1.58.06-.36.99-1.69.61-.78-1.01-1.21.84-1.4.62-.88 1.88.37.65 1.65-1.24 1.04.08.7-.92 1.41 1.05-.68 1.06.62 1.61 2.62 1.29.64-1.04-.71-1.64 1.04-1.13.81 2.27.75-2.04-.13-1.24-.22-1.48z" /><path d="m678.89 165.91l-.61-.83-2.13-.05 1.36 1.7.03.84-1.31-.18.35 1.35.66.11.1 1.57 1.05-.5-.54-1.37-.05-.75 1.72.59-.63-2.48z" /><path d="m669.6 151.82l-1.34 0-.73 2.01-.23 3.48-.89-.73.08 2.12.33.97 1.1 1.28.29-.8.66.51-.69.57-.12.91 1.11.5 2.02-.33 1.41 1.33.57-.82.83 1.17 1.73 1.09.23-1.02-.73-.54.22-1.21-2.78-1.23-.98.26-1.18-.24-.5-1.77.35-1.79 1.31-.74.59-1.85-.76-1.59.36-.92-.2-.57-.69.58-1.37-.63z" /><path d="m238.71 148.78l-1.35-.1-.5.62 1.4.34-.02.85 1.02.96-.8.5-1.68-.18-2.05-.31-.19.72 1.19.69 1.04-.42 1.35.17 1.05-.16 1.48.38.11.64.57.35.89-1.52.74-.32.34.54.85-.14.4-.4.73.1 1.02-.09 1.06.48.82-.9-1.09-.82-.99-.08.07-.66-1.21.05-.41-.79-.58.05-1.32-.57-1.73-.01-.28.38-1.93-.35z" /><path d="m54.35 150.53l.71-.35.87-.47.05-.12-.56-.78-.36-.3-.4-.19-.85-.38-.17-.04-.13.21.16.44-.39.36-.11.24.37.81-.07.62.56.32.32-.37z" /><path d="m222.93 142.35l-2.08-.76-1.75-.02-1.92-.16-.54.24-1.68.22-1.13.43-1.01.49-.48.8-1.17.69.95.21 1.1-.24.32-.54.92-.03 1.59-1.16 2.18.11-.83.56.78.43 2.89.35.67.46 2.07.6 1.26-.09.52 1.27.77.64 1.43.15.91.58-1.49 1.24 3.18-.22 1.53.18 1.5-.12 1.48-.28.26-.52-1.68-.91-1.64-.09.16-.62-1.32-.46-.73.03-1.39-1-1.88-1.38-.79-.52-2.07.25-.89-.81z" /><path d="m713.28 110.4l-.04-2.29 2.06-2.24.07-1.8-1.22-3.08-2.36.4-.94 1.41.38 2.5-1.39 2.71-1.27.87-3.26 2.22-1.48-1.06-2.32 3.95-2.38-.45-4.42.66-1.63 1.52-2.24 1.15-1.16 1.39-2.11.69.91 1.52 1.4.65-.54 2 1.07.86 1.44-.93 1.48-3.78-2.25-1.63 2.6-.05 2.63-1.04 3.87-.49.09 1.66 1.49.85 3.17-2.53 3.9-.14 2.84-1.05 1.16-1.56-.39-1.12.84-1.77z" /><path d="m719.8 94.77l-1.7-.74-2.62-2.32-.65 1.74-.65 3.07-2.38.12-1.09 1.71.3 2.21 2.47-.03 1.21-2.43 3.5 1.52 1.94-2.21 3.3-.61-.49-2.49-1.58.94-1.56-.48z" /><path d="m275.26 80.3l1.18-1.4.43-.6-1.03-.1-1.93.77-1.37 1.26-2.3 3.54-1.87 1.34.97.6-1.38.79.34.65 4.31.07 2.39-.13 2.13.54-1.57 1.04 1.33.08 2.58-1.93.61.29-.48 1.81 1.46.42 1.01-.08.93-1.96-.69-1.38-.28-1.18-1.55.38.68-1.62-2.21-.69-1.03.54-1.97-.6.78-.78-1.49-.48-1.45.76 1.47-1.95z" /><path d="m719.22 80.17l-.92-2.25.06-2.18-.77-2.14-.58-1.47-.99.31.88 1.03-2.05 1.02-.2 3.04 1.31 2.18-.1 2.97-.52 1.68.26 2.4-.25 2.17.41 1.86 1.46-1.72 1.68 1.34.06-1.55-2.16-2.28 1.36-3.21 3.29.73-2.23-3.93z" /><path d="m384.91 76.81l1.68-1.99-.36-1.59 1.19-1.52-2.38-1.38-1.87.09-1.68 1.04-3.02 1.74 1.16 2.26-1.8 2.32 3.14.34 3.94-1.31z" /><path d="m393.32 62.64l-2.68.19-1.77-.18-1.73 1.8-.81 2.3 1.13 1.13.13 2.15 1.19-1.06.73.62-.8.99.53.6 2.69.39 1.53 1.4-.33 1.29-3.31-.2-.42 1.46 1.22 1.19-2.33.69.63.89 3.49.37-1.99.48-3.26 2.33 1.18.45 1.57-.85 2.05.25 1.47-1.04 1.04.44 3.78-.61 2.97.02 2-1.17-.89-1.15 1.14-.65.27-1.42-2.7-.42-.63-.88-1.37-2.53-1.52-.36-2.15-2.86-2.3-.14 2-1.99.58-1.81-2.44-.01-2.26.3 2.37-2.4z" /><path d="m210.75 47.03l-1.6-.18-.76 2.04-.29 1.75-1.93 1.1 3.01-.22.77 1.3 3.16-1.15 2.2-1.18 1.25 1 3.46.54 1.97-.7-1.58-.74-1.64.17-.2-1.05-2.54-.7-2.44-.76-1.29-.58-1.14.34-.41-.98z" /><path d="m367.76 45.26l-3.69-.16-3.62 1.19-2.8-.63-3.38 1.21-3.46-1.51-3.37.33-1.5 1.45 4.67.51.09.66-3.93.43 4.83 1.08-2.18.99 6.2.7 2.92.33 1.92-.41 6.41-1.52 2.89-1.7-2.51-1.51.51-1.44z" /><path d="m11.08 44.97l.19-1.38-5.83-2.21-5.44-1.69 0 8.85 1.26-.94-1-1.05 2.66-.53-.48.83 1.2.78 2.53-.29 2.26.36.5.97 2.95.64 1.69.78 2.08.07.89-.47.06-2.17 3.64-.23 2.21-.97-4.36-2.08-6.03-.33.52 1.62-1.5-.56z" /><path d="m2.9 35.4l2.29-.53.19-.31-3.21-.63-1.89-.01-.28.1 0 1.51 2.9-.13z" /><path d="m198.78 38.5l-4.13-.45 1.97-1.09-3.02-2.51-2.24-.98-2.94-.35-2.62 1.61-.18 2.45 2.59.9 2.38 1.37-1 2.24-1.79-.06-1.41 1.77.01-2.1-3.44-.76-1.98.39.26 1.38-3.24-.05-3.45.35-3.93-1-2.48.18-2.24-1.21-1.79-.53-1.78.22-2.7.1-1.44.77 2.27.94-2.42 1.12-2.36-1.33-1.9.39-6 .26-4.01-.48 3.12-1.1-2.99-1.13-2.18.15-3.06-.38-5.2-.81-3.4-.94-2.69-.13-.84.65-2.73.37-.3-1.69-2.96 1.51-3.76-2-1.53-.23-.5 1.04-1.66.52-1.52-.92-3.64.56-3.33.97-3.3-.27-2.69.7-1.95.92-2.32-.2-3.5-1.07-4.14-.54-2.42-.31-3.37-.67-2.95.37-1.72-.29-4.27-.21-4.68-.7-2.27.22-3.4-.38.14-.51-3.76-.13-.99.43-1.61-1.01-3.36-.46-3.42 1.18-2.04-.15-4.21.99-2.17.25-2.27 1.06-.53 1.08-2.8 1.01-3.94.08-1.25 1.16 3.06.7 2.13.95 1.58 1.11 2.73.85 1.81 1.37-4.69.09.3-1.11-1.83 0-4.96 1.09-3.12.93 2.81 1.29.94.89 3.25.53 3.14-.25 1.76.49.67-.49 2.36-.48 1.37-.03-1.65.86 1.24.4.42 1.02-1.7.69-1.61-.2-1.79 1.08-1.53-.36-1.79.16-.8 1.14-1.81 1.24-.86 1.28 1.71.95.01 1.26 1.52.53 1.88 1.04 2.89-.42 1.43.79-.4.81.19 1.33 1.36 0 2.22-.89.84 1.11.6-.8 1.45 1.13 1.2-.81.72.38 2.56-.67-1.13 1.31-.39 1.69-1.64.78-.49.45-3.08 1.33-1.1.91-2.75.25-2.37 1.21-2.18.69-2.43 1.04.35.37 3.81-.63 1.85-.75 2.26-.75 2.07-.62 1.53.17 2.6-.95.7-1.05 3.47-1.14.55-.99 2.22-.68 2.39-.93 2.1-1.59-1.62-1.08 3.2-1.58 1.51-1.48 2.84-1.24.61.56-2.37.68-1 2.18.32 1.31 2.47-.47 1.95-.75 2.57-.46 1.23-.15-.46-1.54 2.47-.47 2.64.95 4.37 1.02 3.08-.19 3.89.79 2.12.42 4.6 2.31 2.6.64 3.54.05 2.13.15 1.2 2.09 2.86 1.8.63 1.94 1.96.71 1.22.84.05 1.14 2.69 1.61.39 1.79 2.84.95-.32 1.36 1.24 1.97 4.02.92 1.59.96 4.3 2.18.3.01.76 1.82.35 1.82-.55.59-1.18-2.1-3.21-.75-.27.43.65 1.03.7 1.91.4 2.98-.54 4.03-.87 2.09.71 1.71.08 1.9-.49 1.84 1.18 1.22.31 1.81 1.72 1.86.98.74-.08.51 1.85 3.09 2.16 2.23.27 1.22.57.36 2.06.22.8.6 1.24.11.25.64 1.03.27 1.44 1.27.38 1.14.9 2 1.03 1.77.82 1.46.82 1.39 1.31.61 1.71 1.59-.09 1-.82.83-.92-.12-.16.16 1.31 1.29 1.37.54.56.58.3-.29 1.52 1 1.06.68.34 1.21-.07 1.62 1.13.57 1.61 1.07 1.45 1.27.59 1.35.39.01.93-.81.06-.4-.81-.99-.89-1.01-1.07-.08-.12-1.17-.62-1.04-.66-.97-.74-2.07-1.39-1.13-.48-.79-.67-.56-.45-1.44-.39.03-.3-.76-.33-.16-.37-.52-1.65-1.53-.76-.92-.22-1.67-.36-1.06.35-.91 1.27.62.74-.1 1.61.88-.04.85.79 1.71 1.2 1.67.09.7 1.05 1.08 1.29 1.17 1.19.18.56 1.55 1.31 1.08 1.13.52-.34 1.37.41.54 1.91.91 1.08 1.39 2.23 1.73 1.96 2.21.75 1.12.2.89.75.99-.01.77-.52.58.23.63-.74.22.53 1.08 1.11 1.4 2.39 1.27.93 1.01 2.27.7 1.24.14.57.59 1.85 1.06 2.52 1.03 1.67.32 2.07 1.02 1.67.42 1.57.58 1.12-.22 1.78-.83 1.24-.16 1.82.58 1.14.72 2.52 2.39 1.2.92 1.01.44 1.39.04 1.14.39.63.47 1.23.14.92.44.8.22 1.29.03.24-.52.68.19.38.69-.17.16-.36-.33-.25.34 1.11 1 .94.7.49.75 1.04.9.77.7-.51.43.63.31-.3.7-.01.68.3.45.72.21.5.62.45-.53-.14-.65.58.4.14.65.77.29.87.43.62.53.08.5-.26.38.46.47 1.2.49.26.34.07-.49.95 0 .58.26.91.15.45.89.73.13.29-.37.38 1.32 1.04-.11.32-.33.6-.28-1.06-1.21.22-.46.49-.08.89-.56.45-.77.98-.14 1.1.62.42.73.56.15-.55.6.48 1.19.74.65.9 1.18.35 1.88-.48.58.51 2.04-.42 1.29.82.52-.86 1.17-.93 1.4-1.1.15-.52.8.09 1.11-.83.17.31.69-1.53.88-1.22.48.16.91-.85 1.43-.4 1.38-.78.34.37 2.02-.45.62 1.33.98.85-1.04.48.97-1.18 1.67-1.77 1.4-.69 1.56 1.07 2.11-.72 1 1.59.9 1.72 1.45.7 1.63.91 1.02 2.1 4.42 2.19 4.1 1.89 2.92-.37.64.92 1.83 1.71 1.37 3.99 2.43 4.41 2.23.19.92 2.23 1.27.46 3.13.16 3.64-.69 4.97-.72 4.61-.4 4.3-1.3 2.72.27 2.74-.66 1.83.51 3.33-.94 3.31-1.54 3.56-1.36 3.59-.94.07.18 2.5.64 2.17-1.02 1.52-.75 4.12-.7 3.17 1.4.32.69-2.78 1.5.59-1.17 4.61-2.47-.78-.75 3.69-2.12 1.96 3.37.65-2.34 1.72-.95 2.13.29 3.79 1.12 1.48-.63 1.3.69 1.41 2.77 1.27 2.54 1.55 2.51.72.94-.05.36-2.08 2-.8 1.07-.55 1.98.02.94.11-1.48-1.28-.72-2.31.91-1.04 2.03-.88 1.44-2.6 2.63-1.26.76-1.99-2.12-.45-2.19-1.63.64-1.66 1.74-1.14 2.1-.01.52-1.19.33-2.23 1.79-1.39 2.04-.69-.66-1.15-1.22.7-1.5-.67-.31-2.21.86-.58 2.14.81 2.27-.31 1.34-.78-.41-1.12.45-1.66-.46-1.33 2.44.23 4.45-.47 3.3-1.19 2.13-2.85.12-1.08-1.39-.97.3-1.53-2.82-1.91.15-1.16 1.36 1.23 1.5-.07 2.06.96 1.2-.24 1.64.44 2.51-1.23.96-1.4 1.47-1.27 1.02-2.11 1.51-1.04 1.95-1.77 2.47-3.91 1.55-1.22.5-1.09.42-2.24-.37-1.23.32-1.66 1.88-2.2 2.62-1.77 2.49-.65 1.56-.99 3.5-.85 2.41 0 .52-1.33 1.8-.96.38-2.3 2.25-2.9.4-2.97.7-.88.24-1.46.61-3.43-.15-4.16.62-1.63.55-.05 1.65-1.92 1.41-2.52 3.14-3.09 1.13-1.45.88-3.67-.37-1.35-.75-2.83-.81-.7-1.9-.09-1.71-.64-2.84-2.49-3.28-1.84-3.32.09-4.33-1.18-2.58.69.36-1.23-1.08-1.3-3.69-1.36-2.8-.8-1.69 1.46-.08-2.23-3.92-.35-.7-.67 1.68-1.83-.06-1.53-1.19-.37-1.25-3.88-.55-1.23-.76.1-.36-.91-2.36-1.87-1.63-.53-.76-.24-2.39-.6-1.79.16-.24.4-2.66-.44-.88-.78-1.19-1.08-.84-.06-.06-1.14-1.38-1.45-1.46-.81-.87-.53-1.15.05-.36-1.78-1.68-1.09-1.78-.17-.76-1.05 1.89-.65-2.67.03-2.75.13-.02.56-1.25.7-1.7-.28-1.27-.99-2.38.22-1.99-.02-.09-.73-1.44-1.24-1.56-.04-.8-1.56-.78.7.31 1.05-2.77.9.11 1.69.69.78-.5 1.6-.95.15-.84-1.76.98-1.3.02-1.16-.72-1.01 1.3-.26.07-.52.43-.75-.59-.58-.78-.14-1.08 1.07-.87.5-1.74 1.12-1.74-.19-.18.47-1.4.04-1.27 1.03-.41 1.88-.03.73-.91.24-1.67 1.55-1.15-.07-.83-.61-.73-.67-.99-.39-1.24-.07.09-.22-1.23-.13-.76.66-1.35.45-.94.56-1.1.16-.61-.54-.21.18-.88-.1.04-.47-.8-.8-1.04-.95-.86-.89-.56-1.21-.34-.36-.11-.6.46-.57-.15-.59.2-.95.34-.22-.05-1-.12-.57.07-.98.24-.9.51-.75-.23-.82.12-.49.19-.22-.59-.61-.8-.34-.65-.5-.67-.41-.36-.05-1.01-.31-.44.2-.59.05-.53-.15-.71-.12-.26.25-.71.25-1.03.05-1.03-.2-.35.11-.2-.18-.64.03-.48.4-.24-.09-.65-.29-.19.34-.72-.41.44-.77.4-.07.43-.59.26-1.12-.14-.21.23-.8-.19-.34.36-.96.04-.61-.42-.01-.01-.32.46-.04.57.57.55-1.73.34-.96-.41-.39.52-1.35 1.2-1.32.07-1.07-.53-.48-1.35.19-1.96-.07-2.35.51-1.51.58-.38.65-.19 1.87-.53 1.3-1.41.9-1.4.38-1.66.4-1.7.23-1.94.62-.92-.93-2.36-.59-.87-1.1-.52-1.26-1.48-1.66-.44-1.72-.69-1.08-.38-1.22.21-1.08.16-2.98.39-1.6.86-1.94.01-.01-.01 0-.42-.76-.11-1.06.02-1.54.51-1 1.22-1.06 2.2-.95 2.03-1.65 1.87-.52 1.38-.16 1.62.52 1.94-.28 1.65 1.17 1.62.07.83-.42.83.33.42-.29-.47-.44.03-.9-.42-.63.94-.31 1.7-.15 1.97.24 2.51-.28 1.39.55 1.08 1.04.4.11 2.24-1.01.87.34 1.73 1.86.62 1.22-.45 1.48.33.87 1.03 1.7 1.18 1.91.85.51.35.98 1.09.27.67-.28.55-1.36.1-.87.07-1.49-1.06-2.58-.01-.96-.99-1.58-.74-1.9-.39-1.54.34-1.58 1.05-1.32 1.25-1.05 2.44-1.45.32-.74 1.12-.82 1.11-.14 1.47-1.3 2.29-.66 1.42-1.65-.32-2.23-.23-.76-.63-.16-.1-2.11-1.46-.7 1.4.33-.47-1.41.42-.96.26 1.85 1.14.84-.69 1.52.2.08 1.25-1.77.72-.86-.06-.84-.53-.4-.46-1.2.73.56.49.12.16.57 1.62-1.71.48-1.6-.65-.1.67-.62-.06.27 1.41 0 3.11-.67-.66-.42-3.26.42 1.85-.64 1.29-.11.97-.11 1.64-.39 1.07.04 1.5-.36.18-.63-.67-.5.24.81-.93-.05-.73-1.18.02-1.18.28-.36 1.28-1.46 2.34-.65 2.29-.77 2.37-1.08-.38-.73 2.47-.27 3.55-.07-3.86 1.84.09 1.88 1.69.16 2.48-1.6 2.2-.9 4.93-1.32 2.74-1.46-1.43-.8-.15-1.61-2.23 2.49-3.68.33-2.88-1.11-.73-1.68-.7-2.4 2.1-1.49-1.97-1.09-3.32.22-4.67 1.86-3.56 2.92-1.89.36 2.56-2.05 3.2-2.94 2.84-.99 1.86-1.59 2.3-.15 3.33.01 4.76.47 3.75-.36 2.8-1.83 3.66-.79 1.6-.78 1.61-.83-.16-2.5-.9-.84-1.73-.29-.88-1.88-1.42-.71-3.55-.58-1.99-1.27-2.96-1.25.89-1.4-2.45-2.66-2.9-2.84-1.73-1.98-1.47 1.03-2.13 2.46-3.21 1.23-1.61-1.31-2.03-.35-.74-2.81.06-1.86-3.96-.17-.67-.86-2.74-1.29-2.07-.76-1.84.59-2.28-.22-3.81-.6-1.55.51.74 3.47.97 2.01-2.62 2.33 2.7 1.67 1.51 1.89.18 1.49-1.23 1.55-2.52 1.55-3.56 1.05 1.57 1.16 1.16 3.51-1.2 2.29-1.71.72-3.31-2.11-1.61-2.48-.69-2.24.36-1.92-2.42-.22-3.67-.13-2.35-.93-2.78-.61-1.59-1.05-2.23-.85-4.12-.96-3.11.44-1.04-1.69-1-2.08-3.27-.37.12-2.58.86-1.75 2.41-2.5 2.72-1.8 2.59-.28.15-1.45 1.75-.94 3.18-.14 2.58-1.51.65-.97 2.14-1.87.66-1.12 2.3.67 3.09-.34 4.35-1.56.28-1.08-1.56-1.19 1.65-1.18-.13-1.1-2.99-1.11-3.28-.32-3.16-.17-.12 2.43-1.62 1.92-2.32 1.61-2.15-1.5.66-1.65-2.66-1.43-2.97 1.74.01-2.27z" /><path d="m146.3 30.45l-2.28-.43-5.95 1.35-1.54.88-1.87 1.67 3.88.59 3.43-.04-5.15.89 1.17.82 3.15.05 4.75-.18 4.3.52-2.9.39-3.14-.1-3.43.38-1.48.23 2.74 1.76 1.98-.25 3.03.61 1.2 1.05 2.99-.16 6.6-.39 4.17-.75 2.58-.13 3.83.6 4.02.34.75-.81-1.42-.85 3.65-.18.24-.98-4.01-1.05-3.73-1.1-.69-1.57-1.4-2.17-2.49-.89-2.21-.36-1.95.33 1.58 2.27-1.12.92-1.82-2.18-2.03-.73-2.51 1.14-3.09-1.12-4.94.67 1.11-1.04z" /><path d="m207.64 30.37l1.64-1.44-5.74.59-2.29.91-1.71 1.99.71 2.25 3.16.01-2.33 1.01 1.85.78 3.6.34 4.7.65 8.09.49 4.03-.28 1.19-.66 1.75.76 1.96.13 2.35 1.38-1.42.56 4.5.76 3.41 1.07.85.76.61.99-2.87 2.16-.78 1.11.74.79-4.57.29-4.18.04-1.46 1.63 1.88.77 6.43-.36-.04-.64 3.24 1.08 3.31 1.14-.77.62 2.69 1.09 4.77 1.29 6.03.88-.37-.77-2.31-1.34-3.14-1.92 5.57 1.78 2.8.6.77-1.59-1.45-2.2-.91-.59-3.02-1.03-2.34-1.29.29-1.27 2.87-.28 3.49 2.14 2.74.95 3.9-2.58.69-1.56-3.49-.15-3.2-2.04-3.53-.49-5.23-1.45 4.08-1.04-2.1-2.08-1.94-.89-5.36-.88-2.32-1.42-4.12.51-.29-.97-3.06-1.06-4.93-1.13-2.11.89-4.39.64.33-1.45-3.81-2.3-5.64.91-2.05 1.79-1.75-1.38z" /><path d="m176.99 28.84l-2.63 1.08 2.44 1.45-4.53-.28-.05.72 5.52 1.71 1.54.85 2.14.18 3.65-.86.4-2-3.37-.95 2.08-1.07-.58-.64-3.96.28-2.65-.47z" /><path d="m192.9 31.22l2.65-.43 3.32-1.98-4.25-.54-4.63-.08-2.2.61-1.16.94-.04 1.11 1.39 1.95 2.53.08 2.39-1.66z" /><path d="m132.31 34.27l0-.93 2.76-1.56 5.45-1.56 2.79-.56-2.39-.93-2.15-.65-5.68-.12-3.17-.46-7.52.34 2.18 1.37-1.93 1.46-1.74 1.84-.75.72 5.13 1.18 1.17.97 5.85-1.11z" /><path d="m722.41 25.02l-8.03-1.18-5.87-.09-2.93.41-1.19 1.53 4.4 1.45 3.69-.53 8.19.06 1.74-1.65z" /><path d="m181.11 22.45l-.17.29-3.13-.13-3.34.76-2.39-.07.14 1.72 3.64-.17-.05 1.29 2.39.36 3.67-.23 1.01-1.65-.07-1.14-1.7-1.03z" /><path d="m159.53 23.6l-.75-1.06-2.29-.25-2.04.8 3.18 2.13-3.88-.17-3.95-1.31-6.26-.75-2.09.62-3.03 2.17 3.11.4 10.04-.27-4.62.98.29.73 3.38-.05 5.6-.96 7.53-.35 1.35-1.05-.39-1.09-2.33-.1-1.98.37-.87-.79z" /><path d="m527.86 35.78l-4.25-1.82-.46-1.85 3.49-2.13 3.31-2.17 6.9-2.12 6.79-1.06 7.87-1.1 1.49-.69-1.54-.88-4.32.29-3.81.82-7.4.42-7.33 1.43-4.97 1.17.6 1.01-5.32 1.95 2.04.27-4.41 1.9.08 1.21-2.27.48.32 1.2 4.02.59.59.99 7.26.29 1.32-.2z" /><path d="m189.59 21.61l-4.58-.14-.84.91 2.58.69 4.6.27 2.23.97.27 1.1.77 1.22 5.9.72 3.59.27 4.56-.04 6.38-.34 2.84.27 3.31-.48 1.39-.59-.5-.92-2.38-.83-3.61-.16-4.52.19-3.53.48-3.25-.19-2.99-.09-1.41-.53-2.55-.5.5-.84-1.92-.73-4.37.01-2.47-.72z" /><path d="m141.78 20.39l-3.05.33-3.41-.03-4.56 1.44-3.77 1.66 0 0 3.01.48 3.56-.34 4.13-.95 2.07-.11 1.72-.77.3-1.71z" /><path d="m637.71 21.89l-5.03-.35 3.02-.54-3.81-.72-5.24.91-2.13.94-.61.96-4.08-.03-4.99 1.18-1.82-.5-5.83.21-.74.6-5.87.3-4.32 1.1-2.56.06-2.57 1.46 1.81 1.16-4.82.3-5.34-.1-3.87.45.22 2.36 1.98 1.85-4.11-1.26-4.61.12-3.72.87 1.02 1.6-2.38-.4.88-2.15-1.17-1.23-1.11.05.51 1.58-3.97 1.5 2.88 1.81-1.77 2.23.53 1.24 2.43.18-1.03 1.47 1.29 1.26-1.92 1.06-.59 1.1-2.45.57-.88.8-2.54-.33 4.35-3.16.96-1.48-2.46-1.36.51-3.05-.72-1.55-1.38-.71 2.11-1.8-.46-1.24-5.89-.58-1.65.43-1.46 2.02-4.1 2.02.07.71 1.19 1.73-.74 1.06 2.68.21.07.48 2.25 1.17-1.48 1.16-8.05-2.54-3.08-.69-6.56-.67-1.16.73 2.33 1.29-2.53 1.47-2.53-1.34-3.3.92-4.16.06-1.6.76-2.75-.23 2.19-1.35-1.68-.11-7.75 1.91-4.65 1.06-.54 1.42-3.43.48-1.75-.76-.02-1.24 2.82-.27-1.27-1.25-6.22-.71 1.64 1.38-1.09 1.33 1.85 1.32-1.29 1.53-2.08-.78-2.05-.13-5.18 2.18 1.5 1.63-1.87.54-5.38-1.38-1.46.8 1.39.99-.29 1.08-1.74-.58-2.86-.67-.28-3.31-3.63-1.62 1.63-.29 9.93 1.69 3.62-.59 2.47-1.17-.15-1.48-1.7-1.05-8.4-2.52-6.08-.52-3.65-1.35-2.3.78-2.43-1.4 2.86-.6-6.95-1.62-3.99.44-4.05-.1-3.39 1.84-3.65-.11-4.88.97-6.11 2.79-3.72 1.67-5.34 4.29-4.07 3.1-4.38 2.29-5.87 1.87-2.05 1.43.71 5.12.79 2.39 3.07 1.13 2.97-.52 4.38-2.57 1.5 1.37 1.69 3.14 1.86 2.52.7 2.1 2.57-.1 1.26-1.76 2.7.21 1.26-2.08.85-3.73 2.31-.52 2.04-2.51-2.12-1.23-1.59-1.56 1.62-3.13 4.29-1.92 3.54-1.78-.35-1.36 2.16-1.55 3.82-.63 3.09 1.05.23.94-1.48.46-5.09 2.41-2.01 1.4-1.06 1.29 1.08 2.01-.5 2.19 2.16.72 1.28 1.22 3.62-.47 3.91-.82 4.03-.17 2.33 1.05-2.53 1.23-2.29.07-2.41-.37-2.8.32-2.81.62.19 1.28 1.41.79.82-.28-.26 1.31-.43 1.71-1.78.04-1.77-1.66-2.09.76-1.09 1.39-.08 1.68.47 1.86-3.06.72-.51.98-2.14-.03-.17-.54-2.22-.37-2.8.75-3.46 1.03-1.52.65-1.05-.71-2.51-.88-1.25.61-2.26.42.02-.79-2.24-.52-.04-.86-.61-1.08 1.6-1.6.67.24.54-.83-1.21-.34-.26-.62.66-.73.07-1.14-1.79.63-.78.61-1.95.14-.64.66-.37.6.07 2.28.9 1.23.1 1.26.51.83-1.51 1.1-.41-.49-1.86.12-.43.47-1.85-.06-3.04.93-1.95 3.27-1.14.61-1.78.44-1.95.44-.67 1.82-5.17 1.74-2.1-.96.71 2.52-3.73-.57-2.89.48.23 1.62 3.4.86 1.63 1.12 2.3 2.33-.43 4.43-1.15 1.33-3.59-.07-1.84.12-2.37-.38-2.98.01-2.72-.4-3.14 1.6.9.97-.11 1.58.1.75.44.8.05.94-.46 1.34-.16.89-.88.81-.18 1.46.53.84 1 .2.2 1.37-.34 1.74 1.15-.25 1.17.32.9-.58 2.07.34.63 1.28.82.75 1.09.19.85-.84 1.39-.79 2.12.04 2.82-.03 1.57-1.71 1.68-.44.48-1.45 1.29-.99-.87-1.27.86-1.81 1.36-1.23.2-.74 2.85-.47 2.1-1.48-.11-1.3.25-1.33 3.24-.72 4.38.6 2.01-1.26.93-.16 1.28-1.03 1.02-.3 1.81.73 1.11.26.69 2.2 1.51 1.28 2.03 1.44 1.74 1.01 1.64.14.97.89 1.42.41.66.96.92.27.68 1.12.87 1.29-.48.48-.46 1.19-.01.68.93-.17 1.19-1.91.93-.13.26-1.16-1.61-.83.94-1.43 1.93.36 1.23 1.04.42-.8-.23-.41-1.91-1.16-1.63-.67-1.99-.8.62-.45-.54-.49-1.74.02-2.47-1.8-1.12-1.83-2.08-1.12-.73-1.13.27-.64-.12-1.1 1.8-.79 1.77.33-.49.2-.08.03-.05.77.66.75.68-.96 1.42.35.05.75 1.01.93-.45.17 1.87 1.64 2.03.66 1.29.8 2.09.82.96.44.62.73.47.17.37.35-.3.69-.19 1.51.19 1.06 1.24.75.04.49.38.15.15.64 1.14 1.26.86 1.03.39 1.47.84 1.78 1.82.97 1.47-.03-.84-1.96 1.41-.23-.65-1.14 2.05.59-.03-1.25-1.1-.65-1.24-1.02.84-.49-1.11-1.04-.5-1.33.42-.49 1.17 1.15 1.24-.01 1.13-.36-1.54-1.25 2.69-.57 1.16.21 1.35.06-.03.46.7 1.03 1.86-1.19.95-.69 2.63-.12.41-.55-1.94-.72-.27-.85-.71-1.27.81-1.59 1.15-.92.62-2.68.68.21 1.08-.48-.05-.57 1.72-1.65.82-1.22 2.06-.27.15.83 3.46.56.64.51-2.13.74-.39.42 2.43.65-.49 1.05 1.23.45 3.02-1.29 2.43-.38.44-.8-2.27.14-1.09-.54-.13-1.38 1.92-.83 2.08-.12 1.48-.71 1.77-.18 2-.36.05.49-3.27.9 1.24.88-1.84 1.86-1.62.36 1.92 1.3 2.54.84 2.83 1.88.81.68 1.23.25 1.29.82.55 1.52-.33.95-2.62 1.16-1.91-.2-2.59.34-3.19-.86-3.88-1.56-3.68.04-2.59.63-2.67 1.44-4.23-.29-.94 1.69-3.42.09-2.46 2.12 1.41 1.06-1.08 1.73 1.62 1.23 1.32 2.21 2.42-.04 2.15 1.19 1.54-.27.51-.92 2.39.08 1.8 1.19 3.38-.25 1.52-1.28 1.86.51 1.36-.19-.84.84.81 1.01-.54.91.21 1.7-.05.08-1.1 1.56-.79 1.81-.06.03-.32.56-.45 1.68-.59 1.03.15.13-.64.73-1.1.56-1.73-.12-1.78-.53-.52.73-.6-1.1-1.58-.29-1.96.19-.92.63-1.71.71-1.03-.35-2.2-.65-2.14-.59-2.96.04-.54-.74-2.21-.26-.71-.38-.82-.01-.76-.99-3.01-.46-1.53.31-1.6 1.04-.69 1.08.51 1.7-1.06 1.02-1.09.58-2.36-1.1-3.14-.93-1.99-.44-1.04-1.97-2.95-.99-1.86-.38-.93.2-2.61-.77-.84-.35-.56-1.05-1.15-.04-.43-1.21 1.47-1.12.29-1.92-.77-.55.02-1.03 1.11-1.09-.16-.43-1.89.82.07-1.12-1.56-.27-2.42.9-1.52.13-.9-.52-2.37.02-2.1.88-1.12-.33-3.67.18-3.77.39-2.14.68-1.4.92-2.41.38-2.13 1.22-.97-.03-2.3-.49-2.11.16-1.34-.95-1.64-.01-.7 1.37-1.48 2.3-1.65.92-2.23 1.01-1.43 1.5-.3 1.17-.84 1.92.55 2.76-1.85 1.86-1.11.59-1.76 1.52-2.06.24-1.16.89-1.41 2.27-1.48.81-.8 1.37-.05 1.18-.59 1.3-.75.36-1.24 1.41-.76 1.57.14.75-.72 1.16-.86.6-.1 1.03-.1.94 1.17.96.58 1.06-.22 1.11.26 1.1.25 2.2-.28 2.09-.62 1.1.2 1.19-.53 1.14-1.08 1.56-.98.43 1.11.79.92 1.73-.29.98.37 1.71.14.47.68.47-.01.34.51.63.93.15 1.19.92.64.37.33.49.25.98.56.44.56.29.87.87.97 1.31.28 1.65.38.81 1.16 1.19 1.6.89.6.17 1.5 1.43 1.89 1.22 2.02 1.69 2.29 1.06.58-.02.43.06 2.2-.82 1.54-.64 2.64-.39 1.42-.02 1.55.43 1.01-.02 1.98.63 2.01-.64 1.23-.77 3.49-1.3 1.79-.47 1.83-.26 1.96 0 1.67-.03 1.58 1.47.73 1.61 1.19 1.39 1.77.05.86-.5.84.11 2.31-.8-.03.62.57.32.45.99 1.02.38.87 1.47-.33 1.75-.76 2.5.42.33-.45 1.65-.54 1.62-.49.71-.07.74 1.35 2.29 1.47 1.84 2.28 2.24 1.83 2.35.59 1.68.31.68-.21.44 1.12 1.4.45 1.49.67 2.15-.68.88-.12.46.55 1.33.59 1.35.66.8.12 1.26-.23 1.64-.72.99-1.27 1.45-.53.92-.72 2-.12.95-.77 2.04-.3 1.95.21 1.4.13 1.7 1.81 2.17.48 1.4 1.17 2.66 1.15 1.84.86.92.29 1.21.05 2.66.74 3.42.55 1.61.49 2.16.87 1.62 1.65 1.68 1.6 2.89 0 .01 1.12 1.88 1.45 2.08.06 1.7-.72.41.73 1.49-.02 1.3.3.6.1-.31.96.99.75.04.94.79 1.01-.05 1.38-.84 1.89-.35 2.3-.88.92.12 1.34-.27 2.41.43 1.1-.43 1.35.33.29-.62 1.13-.11 2.32-.86 1.68-1.01 1.57-1.34 2.51-2.29 1.26-1.59.62-1.14.94-1.13.44-.32 1.51-1.13.58-1 .26-1.85.56-1.61.19-1.17-.57-.15-.19-.94.97-.82 2.68-1.2 1.83-.75.93-.8.33-.92-.53-.38.36-1.03.07-2.18-.39.11-.03-.67-.44-1.3-1.05-1.68.18-1.59.92-.51 1.55-1.58.86-.41 2.51-2.38 2.5-1.08 2.03-.84 1.42-1.38.86-1.54.66-1.59-.39-1.09-.08-3.47-.28-1.95.09-2.22-.36-.99-.81-.49-.92-2.19-.78-1.39.15-1.07-.13-.67.61-1.34-.07-.58-1.42-.81-.13-1.26 1.03-2.74.89-.73.43-1.48.72-.9.31-1.56.84-.17.55-.92 1.55-.89.5-.53.52-1.17 2.43-2.69 2.07-1.69 3.32-2.21 2.23-1.8 2.61-3.03 1.9-2.49 1.9-3.25 1.38-2.84 1.07-2.48.63-2.4.46-.81 0-1.17.2-1.29-.05-.61-.84 0-1.05.76-1.18.23-1.03.33-.71.04-1.26.08-.8.41-1.1.14-1.95.69-2.42.27-2.1.56-1.1 0-1-.93-.44-.92-.72-.41-.96-.61 1.27-.53.07-.92-.52-.69-1.1-.67-.69-.76-1.21-1.29-1.23-1.26-3.03-2.1-1.22-1.08-.61-2.04-1.29-2.58-1.22-.82-.85-.55-.81-2.65-.33-2.29.49-.4-.71-2.18-.4-.46-2.58-1.99-.08-1.44.45-.39-2-2.46-.71-1.26-.82-1.2-1.68-3.47-1.37-2.23-.92-2.35.23-.2 1.59 3.19 1 .99.74.72.52-.39.6-1.16.48-1.68.63-.89.07.32-.27.89-.1.78-.35 1.22 1.11-.01 1.13 1.52 1.35 1.79.87 1.66.65.49.62 1.16-.12.5.73 1.27 1.2.46 1.04.87 1.27 2.46-.09 1.32.26 1.54 1.47 2.12.99.37 1.54 1.53.62 1.81 1.19 1.86 1.15.8.17.88.67.67.29.95.09.97-.27.43.23 1.01-.44.11.64.92.43 1.64.36.65-.06 1.22.58 1.3 1.54.11.71-.3 1.1.05.34-.57.58-.16.49-.59.56-.12 1.87-.12 1.41-.43 1.3-.92.67.13.98-.12 1.99-1.57 3.55-1.03 2.21-.94.05-.76.43-.99 1.61-.59 1.03-.13 1.48-.75 1.23.21 1.07-.62-.01-.89.87-.56 1.38.01.51-.46.22-1.09 1.39-.83 1.02.01.21-.27-.27-1.49.35-1.13.47-.53 1 .12.83-1.52.94-.71.35-.63.81-1.32.01-.5-.8-.28-.6-.74-1-1.27-1.32-.4-1.63-.29-1.24-.81-.99-1.52-.31-1.75.29-.41.21-.92-.27-.19-.65.76-1.4 1.37-1.66 1.42-1.52 1.5-1.34-.06-1.84-.06-1.74.35-.08-.61-.4.11-.42-.85.48-1.31-.04-1.3-.67-.69-.61.24-.6 1.16.15 1.62-.33-.55-.3-.73-.64-.62-.28-.74.22-.74-.13-.92-1.51-.94-.39-.78-1.09-.5-.87-1.92-.71-1.68.19-.5-.46-.98 1.32.1.83-.86 1.41.73 1.2-.36 1.64 2.97 1.48 2.11 2.14.63 2.24 1.71 2.72.73 2.24-1.07 1.71-.4 1.06.39.95 2.73 2.51.29 2.42.51 4.18.67 3.13-.31 3.61-.04 4.1-.42 1.71 1.69.66 1.6 1.63.56 2.61 1.89.66.87-1.07.8 2.9 2.69 1.57.27 3.23-1.33.43 2.08-.01 2.69.67 2.85.92 4.3 2.02 3.06.38 1.38.56 2.78 1.18 2.14.78 1.05.85 2.24 1.03 3.11 2.1 2.08.89-.64.75-1.51 2.03-.63-.68-.73 1.01-1.7 1.15-.11.01-3.77.94-2.11-.11-1.85-.47-2.89.67-1.69 1.04-.12 2-.8 1.11-.54 0-1.03 2.22-1.45 1.67-1.4 2.48-2.62 3.2-1.49 1.19-1.32-.13-1.67 2.74-.46 1.51.03.32-.81.86.2.63.24.32-.41.95.45.69-1.23-.2-.92 2.05.09.93 1.29.42 1.07.13 1.13.63 1.16 1.58 1.82 1.3.28-.27.8 1.74 2.56.46 2.09-.76 2.75 1.38.52 1.24.2 2.53-1.59 1.46-1.11.96 1.84.4 2.81.73 2.66.9 1.15-.18 2.42.75 1.31-.69 1.71.22 1.65-.66 2.13-.24 1.38.42 1.24.37-1.31 1.07 1.06 1.18 1.25.38 1.1.88.85.49.95-.24 1.61.8 1.22.31 1.84 1.28 1.48.26 1.13 2.63 1.77 2.1 1.64 1.58-.14.04-.76-.87-1.96-.78-.61-.17-1.32-.21-.76.23-1.01-.12-1.5-.94-1.49-1.31-1.34-.51-.21-1.15-1.15-1.35-.26-1.24-1.27-.4-1.92-.9-2.03-1.45-.07-.15-1.61.72-1.96 1.2-3.25.18-2.44 1.96-.02-.33 1.75 1.9-.04 2 1.02 1.12 2.29.9 1.16 1.86.33 1.65 1.26-.62 1.5.81 1.43 2.77-2.07 1.81-1.85 2.54-1.43 1.86-1.47.3-3.91-1.02-4.11-1.35-1.78-2.02-1.38-2.08-2.9-1.7-2.34.49-1.54 1.85-2.1 2.97-1.91 1.05-.36 2.98.71-.52.86.58 1.62 1.23-.13.76-2.35 2.35-.34 3.11-1.11 1.25-1.11.77.72 1.36-.98 2.5-.26 3.1-1.87 3.05-2.05 2.07-2.65 1.8-2.92 1.62-2.4 1.24-.2.56-1.77.35-1.81-1.31-.69-.53-1.18 1.39-.61.04-1.65-1.51-1.71-1.35-2.03-.88-2.19-2.39-1.22 1.14-1.55 2.16-1.12 1.04-1.2 3.15-.62-.36-1.16-1.44-.06-1.97-.87-2.49 1.59-1.76-.65-.08-1-1.82-.36-1.17-1.5 1.14-1.04 2.18-.11 1.37-1.43 2.5-1.55 1.94-.78 1.18 1.16-1.76 1.5.46.86-1.18 1.03 2.39-.61 1.64-1.04 3.11-.64 1.04.6 1.3.24.15.36-.57 1.2.2.4-.52.27-.61.97.6.36.57.2.08.42.65-.18.27-.42 1.08.42 1.52 1.9-1.65.38.98 2.31-.41 1.67.25 1.21 2-.19 1.78-.93 2.01-.42.84-1.22-.02-2.56-.55-1.44-1.92-2.63-1.26-.97-.88-.36.26-.25.07-.96.96-.6 1.48-.36.84-.66.39-.39 1.15-.49-.08-1.6.66-.75.97-.76.84.14.35-.74 2.98-1.63 1.4 1.08 1.4-.03 2.96-1.3 1.44-1.31 2.99-2.57 3.01-2.59.75-1.53 3.35-3.22 1-3.55.19-2.66 1.74-2.22-.08-1.89-3.21-2.44-2.44-.15-1.42 1.11-2.16-.49-1.09-1.39-3.5-.28 8.52-5.24 7.2-4.34 7.31-.66 6.79.38 2.75-1.09 3.46.34-.16 1.6 3.43-.22 4.96-.58-1.83-1.37 5.56-3.72 5.74-.76 1.82 2.74 5.63-2.44 1.34-1.83 2.7-.19-1.79 3.13-3.99 1.77-3.83 2.29-3.97 2.8-3.45.49-.12 1.04-1.87 1.33-1.07 3.08 1.24 4.94.95 3.24.82 1.53 3.21-2.07.66-2.26 3.31-.54.78-2.54 3.88-1.13-.92-.96.95-1.86 2.06-.08.3-3.23-2.53-.5-.08-.9 2.66-2.15.72-1.46 2.97.3 2.14-.95 1.01.83 5.79-1.75 3.18 1.54.82-1.01 3.23-1.37 3.4-1.56 1.97-.26 6.21-1.67 4.15.49.57-.59-.26-.92-1.03-.6-1.32-1.83-2-1.18 2.88.16 2.85-.98.02-.01 0-8.85-3.11-.97-6.39-1.06-4.62.13-7.09-.62-.99.98 1.79 1.43-2.75.71-3.87-1.98-4.21.25-4.2-.44-3.94.06-2.97.45-2.74-.63.27-1.62-1.85-.92-4.43-.37-8.97.42-5.82-1.7-1.89-1.32-20.07-1.44-2.93.96 1.6 2.07-3.63-.31-1.64.62-4.3-.68-3.79.59-3.56-1-2.15 2.33-3.49-.9-2.79-1.75 1.31-.93-1.02-1.42-3.59-1.17-3.55.01-4.71-.39-.13 1.7-9.29-.33-.54-1.04-7.13-.37-3.56.35-.97.58-1.14-1.42-2 .42-3.28-.56-2.76-.32 1.67-.65 5.84-1.24 2.46-.66.55-1.15-1.78-.83-5.01-1.09-6.5-.03-2.03.54-.6-1.09zm-128.58 79.31l-1.16-1.17-2.43-2.62.22-1.49-2.02-2.11 2.21-2.3 2.15-.36 1.01-1.32 2.08-.47 2.57-.97 1.89.54 2.22-.11.4 1.38-.4 2.16-1.94-.33-1.89.36-.09 1.63-2.16-.21.07.72 1.23.56 1 2 2.58.76.42.77-.54.93.12.54.7 1.44.22-1.63 1.79-.57.64 1.27 1.62 1.34-1.95.71-2.1-.55-.49 1.88 1.47.13-.57 1.52 1.74.75-.33 2.32.42 1.57-.22.52-3.47.59-3.16-.38-1.54-1.12-2.11-.46-.7-1.64-.06-1.1.82-.52.38-.78.38-1.72 1.83-.18-.68-.6-1.04-.1-1.13-1.58z" /><path d="m177.64 18.88l-1.7-1.05-6.01-.81-4.36-.31.16.85 2.69.54-2.14.66 4.94.08 3.66.72 3.63.25-.87-.93z" /><path d="m633.5 18.92l.66-.9-5.63-1.26-1.67-.15-1.83.25-4.06 2.92 12.53-.86z" /><path d="m440.56 15.82l-2.8-.77-3.27.08-.84.76-3.16.03-1.22-.78-6.06.79 1.73 1.74 4.33 1.88 3.33.64-2.02.79 4.78 1.36 2.68-.09 1.06-1.84 1.95-.42 1.23-1.63 5.6-.88-7.32-1.66z" /><path d="m456.55 14.26l-5.62-.56-2.25.67-3.22-.54-6.86.62 2.43 1.02 3.19.04.39.61 6.56.37 6.44-.26 3.3-1.19-4.36-.78z" /><path d="m622.09 17.65l.55-2-5.12-2.15-4.32-1.12-4.81.5-5.77 1.52 3.04.44 1.7 1.6 3.69.84 6.19.65 4.85-.28z" /><path d="m206.62 15.92l-1.75-1.47-3.65-.42-3.74-.48-2.84-1.18-5.16.11.97.51-2.28.16-1.54.67-1.54.99 1.41 1.01 2.45.74 4.06-.02-1.76.59-.03.81 2.39.9 4.6.29 3.93-.16 4.11-1.67 3.05-.67-2.68-.71z" /><path d="m247.78 8.26l-4.82-.14-4.81-.14-6.41.37-1.18-.24-6.8.09-3.98.25-2.94.36-1.68 1.2-2.4-.63-2.76-.11-3.27.83-4.36.36-2.59.07-3.31.42.49.76 2.6.65 1.85.9 3.93.75 7.77-.14 5.01.26-3.47.81-1.76-.24-6.07-.1.94 1.15 3.14.87-.63.77-3.94.53-1.8.86 3.6.43 3.03 1.42-5.94-.96-1.35.16 1.09 1.6-4.11.5.28 1.07 4.2.12 3.31.27 6.53-.35 5.8.61 5.94-1.33-.05-.54-3.79.08-.31-.5 3.1-.66 1.05-.87 3.44-.63 2.11-.76-1.84-1.1 1.54-.4-3.07-.27 6.73-.24 1.42-.46 4.58-.36 3.8-1.82 3.62-.63 5.25-1.35-4.84.01 2.01-.49 5.38-.45 5.42-.97.1-.59-4.07-.6-4.77-.29-5.94-.17z" /><path d="m339.78 7.34l-17.75-.28-7.86.21-2.83.82-7.8-.1-7.46 1.33-.3.95 5.28 1.2-4.62-.72-3.12-.18-5.3-.83-5.89 1.22-2.43-.69-6.83.02-6.83.35-5.26.59.92 1-3.23.23-7.7 1.55-1.93.89 6 .8-.86.81-8.14 1.06-8.42 1.07-.3.87 5.01.9 9.51.58-4.48.12-5.83.7 3.86 1.4 2.58.7 5.42-.16 5.94-.09 4.72.16 5.96 1.3-.03.93 2.83.87 2.68 2.35 1.76 1.54 1.35.83-2.48 2.07 1.86.55 2.21-.31 1.99.76 3.82 1.41-4.54-.59-2.06.03-.87 1.18.15 1.51 2.73.73 1.99-.32 1.21-.33 2.54-.79-.46 1.74-.88.93-3.34.82-2.2 2.6 1.48.78-.8 1.64 3.08 2.05.3 2 1.13 1.45 3.85 2.76 1.48 2.17 2.16 1.22 4.44.01 3.28 1.81 3.13-.13 1.14-2.17 1-1.84-.89-1.74 3.62-1.77 1.12-1.46.03-1.56 1.91-1.37 3.19-.52 2.96-.55 1.54-.09 4.78-1.56 3.09-2.34 2.3-.86 2.45-.01 6.5-.77 6.04-1.75 5.96-1.93-3.07-.13-5.85-.09 2.58-1.17-.76-1.51 2.74 1.28 1.72.86 3.96-.43-.84-1.79-2.92-1.36-3-.55 1.15-.6 4.4.92-.03-.99-2.79-1.5 3.1-.01 3.13-.35.73-.78-2.58-.9 4.94-.16-2.88-1.91 2.38-.21-.53-1.89-4.1-1.18 3.66-.7 3.47-.09-2.67-1.45-.07-2.47 1.79-1.45 2.6-1.62-5.15-.1 7.11-.39 1.25-.51 9.06-1.58-1.25-.95-6.66-.43-10.79.86-5.66.83 2.44-1.29-1.85-.8-4.31.68-6.69-.77-7.87.25-1.12-.4 11.96-.21 8.5-.1 4.11-.86-13.9-1.76z" /></g></g></svg>